# xmcd
#
# Track frame offsets: 
#        150
#        14198
#        31408
#        48348
#        69143
#        96400
#        113494
#        142418
#        163079
#        181067
#        213951
#        234014
#        245411
#        263402
#
# Disc length: 4029 seconds
#
# Revision: 0
# Processed by: cddbd v1.5.2PL0 Copyright (c) Steve Scherf et al.
# Submitted via: ExactAudioCopy v0.99pb4
#
DISCID=b80fbb0e
DTITLE=Guy Davis - On Air
DYEAR=2007
DGENRE=Blues
TTITLE0=Drop Down Mama
TTITLE1=When You've Got A Good Friend
TTITLE2=Waitin' On The Cards To Fall
TTITLE3=Train Story
TTITLE4=Drifting Blues
TTITLE5=Good Liquor Gonna Carry Me Down
TTITLE6=Sweetheart Like You
TTITLE7=Back Door Man
TTITLE8=Dust My Broom
TTITLE9=Loneliest Road That I Know
TTITLE10=Limetown
TTITLE11=Step It Up And Go
TTITLE12=Sturday Blues
TTITLE13=Joppatown
EXTD=
EXTT0=
EXTT1=
EXTT2=
EXTT3=
EXTT4=
EXTT5=
EXTT6=
EXTT7=
EXTT8=
EXTT9=
EXTT10=
EXTT11=
EXTT12=
EXTT13=
PLAYORDER=
